<?xml version="1.0" encoding="iso-8859-1"?>
<!-- Generator: Adobe Illustrator 19.0.0, SVG Export Plug-In . SVG Version: 6.00 Build 0)  -->
<svg version="1.1" id="Capa_1" xmlns="http://www.w3.org/2000/svg" xmlns:xlink="http://www.w3.org/1999/xlink" x="0px" y="0px"
	 viewBox="0 0 469.333 469.333" style="enable-background:new 0 0 469.333 469.333;" xml:space="preserve">
<g>
	<g>
		<g>
			<path d="M74.667,192h42.667c5.896,0,10.667-4.771,10.667-10.667c0-5.896-4.771-10.667-10.667-10.667H74.667
				c-5.896,0-10.667,4.771-10.667,10.667C64,187.229,68.771,192,74.667,192z"/>
			<path d="M74.667,256h42.667c5.896,0,10.667-4.771,10.667-10.667c0-5.896-4.771-10.667-10.667-10.667H74.667
				c-5.896,0-10.667,4.771-10.667,10.667C64,251.229,68.771,256,74.667,256z"/>
			<path d="M74.667,320h42.667c5.896,0,10.667-4.771,10.667-10.667c0-5.896-4.771-10.667-10.667-10.667H74.667
				c-5.896,0-10.667,4.771-10.667,10.667C64,315.229,68.771,320,74.667,320z"/>
			<path d="M74.667,384H96c5.896,0,10.667-4.771,10.667-10.667S101.896,362.667,96,362.667H74.667
				c-5.896,0-10.667,4.771-10.667,10.667S68.771,384,74.667,384z"/>
			<path d="M426.667,0h-384C19.146,0,0,19.135,0,42.667v384c0,23.531,19.146,42.667,42.667,42.667h384
				c23.521,0,42.667-19.135,42.667-42.667v-384C469.333,19.135,450.188,0,426.667,0z M96,42.667c5.891,0,10.667,4.775,10.667,10.667
				C106.667,59.224,101.891,64,96,64s-10.667-4.776-10.667-10.667C85.333,47.441,90.109,42.667,96,42.667z M53.333,42.667
				C59.224,42.667,64,47.441,64,53.333C64,59.224,59.224,64,53.333,64s-10.667-4.776-10.667-10.667
				C42.667,47.441,47.443,42.667,53.333,42.667z M149.333,426.667H42.667v-320h106.667V426.667z M138.667,64
				C132.776,64,128,59.224,128,53.333c0-5.892,4.776-10.667,10.667-10.667s10.667,4.775,10.667,10.667
				C149.333,59.224,144.557,64,138.667,64z M426.667,426.667H192v-320h234.667V426.667z"/>
		</g>
	</g>
</g>
<g>
</g>
<g>
</g>
<g>
</g>
<g>
</g>
<g>
</g>
<g>
</g>
<g>
</g>
<g>
</g>
<g>
</g>
<g>
</g>
<g>
</g>
<g>
</g>
<g>
</g>
<g>
</g>
<g>
</g>
</svg>
